<?xml version="1.0" encoding="UTF-8" standalone="no"?>
<!-- Created with Inkscape (http://www.inkscape.org/) -->

<svg
   xmlns:dc="http://purl.org/dc/elements/1.1/"
   xmlns:cc="http://creativecommons.org/ns#"
   xmlns:rdf="http://www.w3.org/1999/02/22-rdf-syntax-ns#"
   xmlns:svg="http://www.w3.org/2000/svg"
   xmlns="http://www.w3.org/2000/svg"
   xmlns:sodipodi="http://sodipodi.sourceforge.net/DTD/sodipodi-0.dtd"
   xmlns:inkscape="http://www.inkscape.org/namespaces/inkscape"
   width="103.46453mm"
   height="51.637245mm"
   viewBox="0 0 366.60661 182.96662"
   id="svg4515"
   version="1.1"
   inkscape:version="0.91 r13725"
   sodipodi:docname="logo.svg">
  <defs
     id="defs4517" />
  <sodipodi:namedview
     id="base"
     pagecolor="#ffffff"
     bordercolor="#666666"
     borderopacity="1.0"
     inkscape:pageopacity="0.0"
     inkscape:pageshadow="2"
     inkscape:zoom="1.4"
     inkscape:cx="211.30786"
     inkscape:cy="28.112692"
     inkscape:document-units="px"
     inkscape:current-layer="g5063"
     showgrid="false"
     fit-margin-top="0"
     fit-margin-left="0"
     fit-margin-right="0"
     fit-margin-bottom="0"
     inkscape:window-width="2048"
     inkscape:window-height="1094"
     inkscape:window-x="0"
     inkscape:window-y="27"
     inkscape:window-maximized="1" />
  <metadata
     id="metadata4520">
    <rdf:RDF>
      <cc:Work
         rdf:about="">
        <dc:format>image/svg+xml</dc:format>
        <dc:type
           rdf:resource="http://purl.org/dc/dcmitype/StillImage" />
        <dc:title></dc:title>
      </cc:Work>
    </rdf:RDF>
  </metadata>
  <g
     inkscape:label="Layer 1"
     inkscape:groupmode="layer"
     id="layer1"
     transform="translate(30.803302,-714.17235)">
    <g
       transform="matrix(3.0514333,0,0,-3.0514333,-163.81,2287.8739)"
       id="g5063">
      <path
         sodipodi:nodetypes="cscccc"
         d="m 163.51932,457.76449 c -14.24415,0 -19.95521,12.0622 -27.26182,25.79939 -7.3066,13.73719 -18.30002,27.99578 -32.21443,30.08135 l -11.840001,-0.0745 c -0.215781,-15.7614 -0.09993,-43.66736 0.06314,-55.7222 l 71.462331,-0.0772"
         style="fill:#9900cc;fill-opacity:1;stroke:#ffffff;stroke-width:4;stroke-linecap:butt;stroke-linejoin:miter;stroke-miterlimit:10;stroke-dasharray:none;stroke-opacity:1"
         id="path26-7-5"
         inkscape:connector-curvature="0" />
      <path
         sodipodi:nodetypes="cscccc"
         d="m 148.93457,457.76449 c -14.24415,0 -19.95521,12.0622 -27.26182,25.79939 -7.30659,13.73719 -18.30002,27.99578 -32.21443,30.08135 l -11.839998,-0.0745 c -0.215781,-15.7614 -0.09993,-43.66736 0.06314,-55.7222 l 71.462328,-0.0772"
         style="fill:#cf314e;fill-opacity:1;stroke:#ffffff;stroke-width:4;stroke-linecap:butt;stroke-linejoin:miter;stroke-miterlimit:10;stroke-dasharray:none;stroke-opacity:1"
         id="path26-7-5-1"
         inkscape:connector-curvature="0" />
      <path
         sodipodi:nodetypes="cscccc"
         d="m 134.34982,457.76449 c -14.24415,0 -19.95521,12.0622 -27.26182,25.79939 -7.306596,13.73719 -18.300014,27.99578 -32.214429,30.08135 l -11.839998,-0.0745 c -0.215781,-15.7614 -0.09993,-43.66736 0.06314,-55.7222 l 71.462327,-0.0772"
         style="fill:#23bc20;fill-opacity:1;stroke:#ffffff;stroke-width:4;stroke-linecap:butt;stroke-linejoin:miter;stroke-miterlimit:10;stroke-dasharray:none;stroke-opacity:1"
         id="path26-7-5-9"
         inkscape:connector-curvature="0" />
      <path
         sodipodi:nodetypes="cscccc"
         d="m 119.76507,457.76449 c -14.24414,0 -19.955195,12.0622 -27.261806,25.79939 -7.306597,13.73719 -18.300015,27.99578 -32.21443,30.08135 l -11.839998,-0.0745 c -0.215781,-15.7614 -0.09993,-43.66736 0.06314,-55.7222 l 71.462314,-0.0772"
         style="fill:#ffbc20;fill-opacity:1;stroke:#ffffff;stroke-width:4;stroke-linecap:butt;stroke-linejoin:miter;stroke-miterlimit:10;stroke-dasharray:none;stroke-opacity:1"
         id="path26-7-5-1-0"
         inkscape:connector-curvature="0" />
      <path
         sodipodi:nodetypes="cscccc"
         d="m 105.18033,457.76449 c -14.244145,0 -19.955205,12.0622 -27.261816,25.79939 -7.306597,13.73719 -17.985396,27.96956 -31.899811,30.05513 l -0.09424,-0.0745 c -0.215781,-15.7614 -0.443613,-43.64114 -0.280539,-55.69598 l 59.745626,-0.0772"
         style="fill:#0072ae;fill-opacity:1;stroke:#ffffff;stroke-width:4;stroke-linecap:butt;stroke-linejoin:miter;stroke-miterlimit:10;stroke-dasharray:none;stroke-opacity:1"
         id="path26-7-5-0"
         inkscape:connector-curvature="0" />
      <g
         transform="matrix(0,1,1,0,0,0)"
         style="font-style:normal;font-weight:normal;font-size:6px;line-height:125%;font-family:sans-serif;letter-spacing:0px;word-spacing:0px;fill:#000000;fill-opacity:1;stroke:none;stroke-width:1px;stroke-linecap:butt;stroke-linejoin:miter;stroke-opacity:1"
         id="text4497">
        <path
           d="m 464.87796,55.918209 0,3.533203 -0.70312,0 0,-8.53125 2.52539,0 q 1.11914,0 1.73437,0.685547 0.61524,0.685547 0.61524,1.810547 0,1.136719 -0.61524,1.822266 -0.61523,0.679687 -1.73437,0.679687 l -1.82227,0 z m 0,-0.615234 1.82227,0 q 0.82031,0 1.23046,-0.533203 0.41016,-0.539063 0.41016,-1.341797 0,-0.814453 -0.41016,-1.347657 -0.41015,-0.539062 -1.23046,-0.539062 l -1.82227,0 0,3.761719 z"
           style="font-style:normal;font-variant:normal;font-weight:300;font-stretch:condensed;font-size:12px;font-family:'Roboto Condensed';-inkscape-font-specification:'Roboto Condensed,  Light Condensed';fill:#ffffff"
           id="path5147" />
        <path
           d="m 471.20609,55.918209 0,3.533203 -0.70313,0 0,-8.53125 2.52539,0 q 1.11914,0 1.73438,0.685547 0.61523,0.685547 0.61523,1.810547 0,1.136719 -0.61523,1.822266 -0.61524,0.679687 -1.73438,0.679687 l -1.82226,0 z m 0,-0.615234 1.82226,0 q 0.82031,0 1.23047,-0.533203 0.41016,-0.539063 0.41016,-1.341797 0,-0.814453 -0.41016,-1.347657 -0.41016,-0.539062 -1.23047,-0.539062 l -1.82226,0 0,3.761719 z"
           style="font-style:normal;font-variant:normal;font-weight:300;font-stretch:condensed;font-size:12px;font-family:'Roboto Condensed';-inkscape-font-specification:'Roboto Condensed,  Light Condensed';fill:#ffffff"
           id="path5149" />
        <path
           d="m 480.80374,57.359615 q 0,-0.697265 -0.41015,-1.130859 -0.4043,-0.439453 -1.42969,-0.773438 -1.16602,-0.357421 -1.76953,-0.919921 -0.59766,-0.56836 -0.59766,-1.517579 0,-0.978515 0.66797,-1.599609 0.67383,-0.621094 1.73437,-0.621094 1.11329,0 1.78711,0.732422 0.67969,0.732422 0.66211,1.78711 l -0.0176,0.03516 -0.6621,0 q 0,-0.84961 -0.47461,-1.388672 -0.46875,-0.544922 -1.29493,-0.544922 -0.80273,0 -1.24804,0.451172 -0.44532,0.451172 -0.44532,1.130859 0,0.632813 0.42774,1.066407 0.43359,0.427734 1.46484,0.75 1.13672,0.351562 1.72266,0.955078 0.5918,0.597656 0.5918,1.576172 0,1.02539 -0.69727,1.628906 -0.69141,0.597656 -1.78125,0.597656 -1.07227,0 -1.86914,-0.644531 -0.79102,-0.644531 -0.76172,-1.869141 l 0.0117,-0.03516 0.65625,0 q 0,0.996094 0.57422,1.470703 0.58008,0.46875 1.38867,0.46875 0.79688,0 1.2832,-0.439453 0.48633,-0.439453 0.48633,-1.166016 z"
           style="font-style:normal;font-variant:normal;font-weight:300;font-stretch:condensed;font-size:12px;font-family:'Roboto Condensed';-inkscape-font-specification:'Roboto Condensed,  Light Condensed';fill:#ffffff"
           id="path5151" />
        <path
           d="m 483.75687,59.451412 -0.70899,0 0,-8.53125 0.70899,0 0,8.53125 z"
           style="font-style:normal;font-variant:normal;font-weight:300;font-stretch:condensed;font-size:12px;font-family:'Roboto Condensed';-inkscape-font-specification:'Roboto Condensed,  Light Condensed';fill:#ffffff"
           id="path5153" />
        <path
           d="m 486.6514,50.920162 2.37304,7.470703 0.0352,0 2.37891,-7.470703 0.9082,0 0,8.53125 -0.69727,0 0,-3.74414 0.0703,-3.486329 -0.0352,-0.0059 -2.4082,7.236328 -0.46875,0 -2.40235,-7.224609 -0.0351,0.0059 0.0703,3.47461 0,3.74414 -0.69141,0 0,-8.53125 0.90235,0 z"
           style="font-style:normal;font-variant:normal;font-weight:300;font-stretch:condensed;font-size:12px;font-family:'Roboto Condensed';-inkscape-font-specification:'Roboto Condensed,  Light Condensed';fill:#ffffff"
           id="path5155" />
      </g>
    </g>
  </g>
</svg>
